<?xml version="1.0" encoding="UTF-8"?>
<svg width="40px" height="40px" viewBox="0 0 40 40" version="1.1" xmlns="http://www.w3.org/2000/svg" xmlns:xlink="http://www.w3.org/1999/xlink">
    <!-- Generator: Sketch 60.1 (88133) - https://sketch.com -->
    <title>closeicon</title>
    <desc>Created with Sketch.</desc>
    <g id="✓-WebsiteApproved" stroke="none" stroke-width="1" fill="none" fill-rule="evenodd">
        <g id="XE-Web-Login-01.01" transform="translate(-1135.000000, -151.000000)">
            <g id="Group-9" transform="translate(235.000000, 121.000000)">
                <g id="Group-10" transform="translate(510.000000, 30.000000)">
                    <g id="closeicon" transform="translate(390.000000, 0.000000)">
                        <circle id="Oval" fill="#E4E8F6" cx="20" cy="20" r="20"></circle>
                        <path d="M16.9091373,15.2928932 L19.636,18.019 L22.363961,15.2928932 C22.7544853,14.9023689 23.3876503,14.9023689 23.7781746,15.2928932 L23.9802051,15.4949237 C24.3707294,15.885448 24.3707294,16.518613 23.9802051,16.9091373 L21.253,19.636 L23.9802051,22.363961 C24.3707294,22.7544853 24.3707294,23.3876503 23.9802051,23.7781746 L23.7781746,23.9802051 C23.3876503,24.3707294 22.7544853,24.3707294 22.363961,23.9802051 L19.636,21.253 L16.9091373,23.9802051 C16.518613,24.3707294 15.885448,24.3707294 15.4949237,23.9802051 L15.2928932,23.7781746 C14.9023689,23.3876503 14.9023689,22.7544853 15.2928932,22.363961 L18.019,19.636 L15.2928932,16.9091373 C14.9023689,16.518613 14.9023689,15.885448 15.2928932,15.4949237 L15.4949237,15.2928932 C15.885448,14.9023689 16.518613,14.9023689 16.9091373,15.2928932 Z" id="Combined-Shape" fill="#707583" transform="translate(19.636549, 19.636549) rotate(-90.000000) translate(-19.636549, -19.636549) "></path>
                    </g>
                </g>
            </g>
        </g>
    </g>
</svg>